_________________________  Visit us at _________________________
  
http://p2pdl.com  ____________________________  http://p2pdl.com


Bullet To The Head 2012 BRRip 480p x264 - VYTO


Genre: Action | Crime | Thriller 
Plot: After watching their respective partners die, a New Orleans hitman and a Washington D.C.
detective form an alliance in order to bring down their common enemy. 
Director: Walter Hill
Stars: Sylvester Stallone, Sung Kang, Jason Momoa.
Rated: R for strong violence, bloody images, language, some nudity and brief drug use.


Info: 
http://www.imdb.com/title/tt1308729/

Trailer:


Format                         : MPEG-4
File size                      : 326 MiB
Duration                       : 1h 31mn
Overall bit rate               : 497 Kbps
Source                         : 720p.BluRay.x264-Felony

Video
Format                         : AVC
Bit rate                       : 455 Kbps
Width                          : 720 pixels
Height                         : 384 pixels
Display aspect ratio           : 1.85:1
Frame rate mode                : Constant
Frame rate                     : 23.976 fps
Stream size                    : 297 MiB (91%)
Writing library                : x264 core 130 r2273

Audio
Format                         : AAC
Bit rate                       : 40.0 Kbps
Channel(s)                     : 2 channels
Channel positions              : Front: L R
Sampling rate                  : 48.0 KHz
Stream size                    : 26.2 MiB (8%)
Language                       : English

Subtitle                       : Yes(English)
 
http://cdn.piczend.com/images/UHFj6Joc/1369449460_frame1.png 
http://cdn.piczend.com/images/VezqYqOW/1369449466_frame3.png 
http://cdn.piczend.com/images/9cXH52d5/1369449468_frame7.png 
http://cdn.piczend.com/images/G0iio206/1369449463_frame9.png 
http://cdn.piczend.com/images/bVFvWc2B/1369449462_frame11.png 
http://cdn.piczend.com/images/4cbQMNlq/1369449469_frame13.png


----------------------------------------------------------------------------------------------------


Encoded using revolutionary 10bit encoding, which enables us to provide you more crispier 
and sharper images at small sizes, just make sure you follow our instructions without a fault.
Recommend to you to use latest version of VLC player. Install K-Lite Codec Pack or shark007 codecs
in case of any kind of problem in playback (For non-VLC Media Player users). Alternatively, install
Core AVC codecs, the fastest decoder that there is coupled with Community Center Codec Pack and play
on Windows Media Player Classic. Check sample to be sure.
Enjoy!

Encoder Notes:Looking For Early Access To Anything You Can Provide DVDScr, R5, DVDR, BluRay, Direct
Audio, Music Releases and Seedboxes. We require dedicated servers, so as to do more 
and fast releases of movies.
If You Got anything to offer please contact us at "contact@p2pdl.com".

Face book Fan Page:   
http://www.fb.me/p2pdl